<mxfile host="Electron" agent="Mozilla/5.0 (Windows NT 10.0; Win64; x64) AppleWebKit/537.36 (KHTML, like Gecko) draw.io/26.0.9 Chrome/128.0.6613.186 Electron/32.2.5 Safari/537.36" version="26.0.9">
  <diagram id="C5RBs43oDa-KdzZeNtuy" name="Page-1">
    <mxGraphModel dx="2074" dy="727" grid="1" gridSize="10" guides="1" tooltips="1" connect="1" arrows="1" fold="1" page="1" pageScale="1" pageWidth="827" pageHeight="1169" math="0" shadow="0">
      <root>
        <mxCell id="WIyWlLk6GJQsqaUBKTNV-0" />
        <mxCell id="WIyWlLk6GJQsqaUBKTNV-1" parent="WIyWlLk6GJQsqaUBKTNV-0" />
        <mxCell id="8QMMxZMl8ROOKRNxFOiM-13" style="edgeStyle=orthogonalEdgeStyle;rounded=0;orthogonalLoop=1;jettySize=auto;html=1;exitX=0.5;exitY=1;exitDx=0;exitDy=0;entryX=0.5;entryY=0;entryDx=0;entryDy=0;fontFamily=JetBrains Mono;fontSize=12;" edge="1" parent="WIyWlLk6GJQsqaUBKTNV-1" source="8QMMxZMl8ROOKRNxFOiM-0" target="8QMMxZMl8ROOKRNxFOiM-2">
          <mxGeometry relative="1" as="geometry" />
        </mxCell>
        <mxCell id="8QMMxZMl8ROOKRNxFOiM-0" value="Голограмма" style="shape=parallelogram;perimeter=parallelogramPerimeter;whiteSpace=wrap;html=1;fixedSize=1;fontFamily=JetBrains Mono;fontSize=12;" vertex="1" parent="WIyWlLk6GJQsqaUBKTNV-1">
          <mxGeometry x="120" y="160" width="160" height="40" as="geometry" />
        </mxCell>
        <mxCell id="8QMMxZMl8ROOKRNxFOiM-16" style="edgeStyle=orthogonalEdgeStyle;rounded=0;orthogonalLoop=1;jettySize=auto;html=1;exitX=0.5;exitY=1;exitDx=0;exitDy=0;entryX=0.5;entryY=0;entryDx=0;entryDy=0;fontFamily=JetBrains Mono;fontSize=12;" edge="1" parent="WIyWlLk6GJQsqaUBKTNV-1" source="8QMMxZMl8ROOKRNxFOiM-2" target="8QMMxZMl8ROOKRNxFOiM-4">
          <mxGeometry relative="1" as="geometry" />
        </mxCell>
        <mxCell id="8QMMxZMl8ROOKRNxFOiM-2" value="Предварительная фокусировка РЛИ" style="rounded=1;whiteSpace=wrap;html=1;fontFamily=JetBrains Mono;fontSize=12;" vertex="1" parent="WIyWlLk6GJQsqaUBKTNV-1">
          <mxGeometry x="120" y="220" width="160" height="40" as="geometry" />
        </mxCell>
        <mxCell id="8QMMxZMl8ROOKRNxFOiM-17" style="edgeStyle=orthogonalEdgeStyle;rounded=0;orthogonalLoop=1;jettySize=auto;html=1;exitX=0.5;exitY=1;exitDx=0;exitDy=0;entryX=0.5;entryY=0;entryDx=0;entryDy=0;fontFamily=JetBrains Mono;fontSize=12;" edge="1" parent="WIyWlLk6GJQsqaUBKTNV-1" source="8QMMxZMl8ROOKRNxFOiM-4" target="8QMMxZMl8ROOKRNxFOiM-6">
          <mxGeometry relative="1" as="geometry" />
        </mxCell>
        <mxCell id="8QMMxZMl8ROOKRNxFOiM-25" style="edgeStyle=orthogonalEdgeStyle;rounded=0;orthogonalLoop=1;jettySize=auto;html=1;exitX=1;exitY=0.5;exitDx=0;exitDy=0;entryX=0;entryY=0.5;entryDx=0;entryDy=0;fontFamily=JetBrains Mono;fontSize=12;" edge="1" parent="WIyWlLk6GJQsqaUBKTNV-1" source="8QMMxZMl8ROOKRNxFOiM-4" target="8QMMxZMl8ROOKRNxFOiM-5">
          <mxGeometry relative="1" as="geometry" />
        </mxCell>
        <mxCell id="8QMMxZMl8ROOKRNxFOiM-4" value="Деление сигнала на две подапертуры" style="rounded=1;whiteSpace=wrap;html=1;fontFamily=JetBrains Mono;fontSize=12;" vertex="1" parent="WIyWlLk6GJQsqaUBKTNV-1">
          <mxGeometry x="120" y="280" width="160" height="40" as="geometry" />
        </mxCell>
        <mxCell id="8QMMxZMl8ROOKRNxFOiM-26" style="edgeStyle=orthogonalEdgeStyle;rounded=0;orthogonalLoop=1;jettySize=auto;html=1;exitX=0.5;exitY=1;exitDx=0;exitDy=0;entryX=1;entryY=0.5;entryDx=0;entryDy=0;fontFamily=JetBrains Mono;fontSize=12;" edge="1" parent="WIyWlLk6GJQsqaUBKTNV-1" source="8QMMxZMl8ROOKRNxFOiM-5" target="8QMMxZMl8ROOKRNxFOiM-6">
          <mxGeometry relative="1" as="geometry" />
        </mxCell>
        <mxCell id="8QMMxZMl8ROOKRNxFOiM-5" value="Комплексное сопряжение сигнала первой подапертуры" style="rounded=1;whiteSpace=wrap;html=1;fontFamily=JetBrains Mono;fontSize=12;" vertex="1" parent="WIyWlLk6GJQsqaUBKTNV-1">
          <mxGeometry x="320" y="270" width="160" height="60" as="geometry" />
        </mxCell>
        <mxCell id="8QMMxZMl8ROOKRNxFOiM-18" style="edgeStyle=orthogonalEdgeStyle;rounded=0;orthogonalLoop=1;jettySize=auto;html=1;exitX=0.5;exitY=1;exitDx=0;exitDy=0;entryX=0.5;entryY=0;entryDx=0;entryDy=0;fontFamily=JetBrains Mono;fontSize=12;" edge="1" parent="WIyWlLk6GJQsqaUBKTNV-1" source="8QMMxZMl8ROOKRNxFOiM-6" target="8QMMxZMl8ROOKRNxFOiM-7">
          <mxGeometry relative="1" as="geometry" />
        </mxCell>
        <mxCell id="8QMMxZMl8ROOKRNxFOiM-6" value="" style="shape=sumEllipse;perimeter=ellipsePerimeter;whiteSpace=wrap;html=1;backgroundOutline=1;fontFamily=JetBrains Mono;fontSize=12;" vertex="1" parent="WIyWlLk6GJQsqaUBKTNV-1">
          <mxGeometry x="178.75" y="340" width="42.5" height="40" as="geometry" />
        </mxCell>
        <mxCell id="8QMMxZMl8ROOKRNxFOiM-19" style="edgeStyle=orthogonalEdgeStyle;rounded=0;orthogonalLoop=1;jettySize=auto;html=1;exitX=0.5;exitY=1;exitDx=0;exitDy=0;entryX=0.5;entryY=0;entryDx=0;entryDy=0;fontFamily=JetBrains Mono;fontSize=12;" edge="1" parent="WIyWlLk6GJQsqaUBKTNV-1" source="8QMMxZMl8ROOKRNxFOiM-7" target="8QMMxZMl8ROOKRNxFOiM-8">
          <mxGeometry relative="1" as="geometry" />
        </mxCell>
        <mxCell id="8QMMxZMl8ROOKRNxFOiM-7" value="БПФ" style="rounded=1;whiteSpace=wrap;html=1;fontFamily=JetBrains Mono;fontSize=12;" vertex="1" parent="WIyWlLk6GJQsqaUBKTNV-1">
          <mxGeometry x="120" y="400" width="160" height="40" as="geometry" />
        </mxCell>
        <mxCell id="8QMMxZMl8ROOKRNxFOiM-20" style="edgeStyle=orthogonalEdgeStyle;rounded=0;orthogonalLoop=1;jettySize=auto;html=1;exitX=0.5;exitY=1;exitDx=0;exitDy=0;entryX=0.5;entryY=0;entryDx=0;entryDy=0;fontFamily=JetBrains Mono;fontSize=12;" edge="1" parent="WIyWlLk6GJQsqaUBKTNV-1" source="8QMMxZMl8ROOKRNxFOiM-8" target="8QMMxZMl8ROOKRNxFOiM-9">
          <mxGeometry relative="1" as="geometry" />
        </mxCell>
        <mxCell id="8QMMxZMl8ROOKRNxFOiM-8" value="Усреднение корр. функции по всем каналам дальности" style="rounded=1;whiteSpace=wrap;html=1;fontFamily=JetBrains Mono;fontSize=12;" vertex="1" parent="WIyWlLk6GJQsqaUBKTNV-1">
          <mxGeometry x="120" y="460" width="160" height="60" as="geometry" />
        </mxCell>
        <mxCell id="8QMMxZMl8ROOKRNxFOiM-21" style="edgeStyle=orthogonalEdgeStyle;rounded=0;orthogonalLoop=1;jettySize=auto;html=1;exitX=0.5;exitY=1;exitDx=0;exitDy=0;entryX=0.5;entryY=0;entryDx=0;entryDy=0;fontFamily=JetBrains Mono;fontSize=12;" edge="1" parent="WIyWlLk6GJQsqaUBKTNV-1" source="8QMMxZMl8ROOKRNxFOiM-9" target="8QMMxZMl8ROOKRNxFOiM-10">
          <mxGeometry relative="1" as="geometry" />
        </mxCell>
        <mxCell id="8QMMxZMl8ROOKRNxFOiM-9" value="Поиск максимума и оценка коэффициента квадратичной&lt;div&gt;(по времени) фазовой ошибки&lt;/div&gt;" style="rounded=1;whiteSpace=wrap;html=1;fontFamily=JetBrains Mono;fontSize=12;" vertex="1" parent="WIyWlLk6GJQsqaUBKTNV-1">
          <mxGeometry x="80" y="540" width="240" height="60" as="geometry" />
        </mxCell>
        <mxCell id="8QMMxZMl8ROOKRNxFOiM-23" style="edgeStyle=orthogonalEdgeStyle;rounded=0;orthogonalLoop=1;jettySize=auto;html=1;exitX=0.5;exitY=1;exitDx=0;exitDy=0;entryX=0.5;entryY=0;entryDx=0;entryDy=0;fontFamily=JetBrains Mono;fontSize=12;" edge="1" parent="WIyWlLk6GJQsqaUBKTNV-1" source="8QMMxZMl8ROOKRNxFOiM-10" target="8QMMxZMl8ROOKRNxFOiM-12">
          <mxGeometry relative="1" as="geometry" />
        </mxCell>
        <mxCell id="8QMMxZMl8ROOKRNxFOiM-24" value="Да" style="edgeLabel;html=1;align=center;verticalAlign=middle;resizable=0;points=[];fontFamily=JetBrains Mono;fontSize=12;" vertex="1" connectable="0" parent="8QMMxZMl8ROOKRNxFOiM-23">
          <mxGeometry x="-0.3" y="1" relative="1" as="geometry">
            <mxPoint x="9" as="offset" />
          </mxGeometry>
        </mxCell>
        <mxCell id="8QMMxZMl8ROOKRNxFOiM-29" style="edgeStyle=orthogonalEdgeStyle;rounded=0;orthogonalLoop=1;jettySize=auto;html=1;exitX=0;exitY=0.5;exitDx=0;exitDy=0;entryX=1;entryY=0.5;entryDx=0;entryDy=0;fontFamily=JetBrains Mono;fontSize=12;" edge="1" parent="WIyWlLk6GJQsqaUBKTNV-1" source="8QMMxZMl8ROOKRNxFOiM-10" target="8QMMxZMl8ROOKRNxFOiM-11">
          <mxGeometry relative="1" as="geometry" />
        </mxCell>
        <mxCell id="8QMMxZMl8ROOKRNxFOiM-31" value="Нет" style="edgeLabel;html=1;align=center;verticalAlign=middle;resizable=0;points=[];fontFamily=JetBrains Mono;fontSize=12;" vertex="1" connectable="0" parent="8QMMxZMl8ROOKRNxFOiM-29">
          <mxGeometry x="-0.075" y="1" relative="1" as="geometry">
            <mxPoint y="-11" as="offset" />
          </mxGeometry>
        </mxCell>
        <mxCell id="8QMMxZMl8ROOKRNxFOiM-10" value="Достигнута требуема величина ошибки?" style="rhombus;whiteSpace=wrap;html=1;fontFamily=JetBrains Mono;fontSize=12;" vertex="1" parent="WIyWlLk6GJQsqaUBKTNV-1">
          <mxGeometry x="100" y="620" width="200" height="100" as="geometry" />
        </mxCell>
        <mxCell id="8QMMxZMl8ROOKRNxFOiM-30" style="edgeStyle=orthogonalEdgeStyle;rounded=0;orthogonalLoop=1;jettySize=auto;html=1;exitX=0.5;exitY=0;exitDx=0;exitDy=0;entryX=0;entryY=0.5;entryDx=0;entryDy=0;fontFamily=JetBrains Mono;fontSize=12;" edge="1" parent="WIyWlLk6GJQsqaUBKTNV-1" source="8QMMxZMl8ROOKRNxFOiM-11" target="8QMMxZMl8ROOKRNxFOiM-4">
          <mxGeometry relative="1" as="geometry" />
        </mxCell>
        <mxCell id="8QMMxZMl8ROOKRNxFOiM-11" value="Дофокусировка изображения" style="rounded=1;whiteSpace=wrap;html=1;fontFamily=JetBrains Mono;fontSize=12;" vertex="1" parent="WIyWlLk6GJQsqaUBKTNV-1">
          <mxGeometry x="-100" y="650" width="160" height="40" as="geometry" />
        </mxCell>
        <mxCell id="8QMMxZMl8ROOKRNxFOiM-12" value="Сфокусированное РЛИ" style="shape=parallelogram;perimeter=parallelogramPerimeter;whiteSpace=wrap;html=1;fixedSize=1;fontFamily=JetBrains Mono;fontSize=12;" vertex="1" parent="WIyWlLk6GJQsqaUBKTNV-1">
          <mxGeometry x="100" y="760" width="200" height="40" as="geometry" />
        </mxCell>
      </root>
    </mxGraphModel>
  </diagram>
</mxfile>
